 http://www.imdb.com/title/tt0052126/


Jimmy and Sheila Broadbent (Rex Harrison and Kay Kendall), welcome to London Jimmy\'s 17-year-old daughter, Jane (Sandra Dee). Jane is from Jimmy\'s first marriage to an American and has come to visit her father and the step-mother she has never met. While visiting Sheila has the idea of making Jane a debutante, an idea Jane resists. Difficulties range from Jane\'s apathy to being placed on the marriage block, the determined efforts of Sheila\'s cousin, Mabel Claremont, (Angela Lansbury) to win wealthy David Fenner (Peter Myers) for her debutante daughter Clarissa (Diane Clare), and Jane\'s attraction to David Parkson (John Saxon), an American drummer who plays in the orchestra at the coming-out balls. 

Format                           : MPEG-4
Format profile                   : Base Media / Version 2
Codec ID                         : mp42
File size                        : 1.15 GiB
Duration                         : 1h 35mn
Overall bit rate                 : 1 724 Kbps

Video
ID                               : 1
Format                           : MPEG-4 Visual
Format profile                   : AdvancedSimple@L5
Format settings, BVOP            : Yes
Format settings, QPel            : Yes
Format settings, GMC             : No warppoints
Format settings, Matrix          : Default (H.263)
Codec ID                         : 20
Duration                         : 1h 35mn
Bit rate mode                    : Variable
Bit rate                         : 1 590 Kbps
Maximum bit rate                 : 4 951 Kbps
Width                            : 720 pixels
Height                           : 304 pixels
Display aspect ratio             : 2.35:1
Frame rate mode                  : Constant
Frame rate                       : 23.976 fps
Resolution                       : 24 bits
Colorimetry                      : 4:2:0
Scan type                        : Progressive
Bits/(Pixel*Frame)               : 0.303
Stream size                      : 1.06 GiB (92%)
Writing library                  : em4v 4.1.6.5
Language                         : English

Audio
ID                               : 2
Format                           : AAC
Format/Info                      : Advanced Audio Codec
Format version                   : Version 4
Format profile                   : LC
Format settings, SBR             : No
Codec ID                         : 40
Duration                         : 1h 35mn
Bit rate mode                    : Variable
Bit rate                         : 128 Kbps
Maximum bit rate                 : 149 Kbps
Channel(s)                       : 2 channels
Channel positions                : L R
Sampling rate                    : 48.0 KHz
Resolution                       : 16 bits
Stream size                      : 87.9 MiB (7%)
Language                         : English
